<svg width="88" height="88" viewBox="0 0 88 88" fill="none" xmlns="http://www.w3.org/2000/svg">
<path d="M73.3333 7.33337H29.3333C25.3 7.33337 22 10.6334 22 14.6667V58.6667C22 62.7 25.3 66 29.3333 66H73.3333C77.3667 66 80.6667 62.7 80.6667 58.6667V14.6667C80.6667 10.6334 77.3667 7.33337 73.3333 7.33337ZM42.1667 34.8334C42.1667 37.8767 39.71 40.3334 36.6667 40.3334H33V47.6667H27.5V25.6667H36.6667C39.71 25.6667 42.1667 28.1234 42.1667 31.1667V34.8334ZM60.5 42.1667C60.5 45.21 58.0433 47.6667 55 47.6667H45.8333V25.6667H55C58.0433 25.6667 60.5 28.1234 60.5 31.1667V42.1667ZM75.1667 31.1667H69.6667V34.8334H75.1667V40.3334H69.6667V47.6667H64.1667V25.6667H75.1667V31.1667ZM33 34.8334H36.6667V31.1667H33V34.8334ZM14.6667 22H7.33333V73.3334C7.33333 77.3667 10.6333 80.6667 14.6667 80.6667H66V73.3334H14.6667V22ZM51.3333 42.1667H55V31.1667H51.3333V42.1667Z" fill="black"/>
</svg>
