<svg width="73" height="73" viewBox="0 0 73 73" fill="none" xmlns="http://www.w3.org/2000/svg">
<path d="M20.1358 32.8196C24.5158 41.4275 31.5725 48.4537 40.1804 52.8642L46.8721 46.1725C47.6933 45.3513 48.91 45.0775 49.9746 45.4425C53.3813 46.5679 57.0617 47.1763 60.8333 47.1763C62.5063 47.1763 63.875 48.545 63.875 50.2179V60.8333C63.875 62.5063 62.5063 63.875 60.8333 63.875C32.2721 63.875 9.125 40.7279 9.125 12.1667C9.125 10.4937 10.4937 9.125 12.1667 9.125H22.8125C24.4854 9.125 25.8542 10.4937 25.8542 12.1667C25.8542 15.9688 26.4625 19.6188 27.5879 23.0254C27.9225 24.09 27.6792 25.2763 26.8275 26.1279L20.1358 32.8196Z" fill="#343434"/>
</svg>
